#!OML:ASF F:\VICON\USERDATA\INSTALL\rory3\rory3.ASF
:FULLY-SPECIFIED
:DEGREES
338
root -0.425618 16.0305 -6.18525 -160.18 1.44109 182.801
lowerback -5.06388 3.69234 3.13222
upperback -1.28971 4.82796 0.160272
thorax 1.74566 2.45215 -1.26093
lowerneck -6.75838 5.39589 2.6922
upperneck 49.2644 -4.65981 2.4076
head 21.0909 -3.76788 -1.13646
rclavicle 1.17283e-014 -5.56597e-015
rhumerus 74.901 23.3476 -31.1336
rradius 43.53
rwrist -34.734
rhand 7.52715 11.4319
rfingers 7.12502
rthumb 32.7773 -15.615
lclavicle 1.17283e-014 -5.56597e-015
lhumerus 89.4812 -19.9633 28.8506
lradius 59.6332
lwrist 30.6381
lhand 7.31992 25.774
lfingers 7.12502
lthumb 32.5802 52.8619
rfemur -38.4984 -15.2068 32.5743
rtibia 63.9404
rfoot -25.4348 -25.8089
rtoes -11.8036
lfemur -55.9853 12.1283 -35.0629
ltibia 43.5884
lfoot -23.9128 20.1888
ltoes -15.9948
339
root -0.410993 16.0632 -6.18259 -160.852 0.749305 181.88
lowerback -2.8752 3.31351 2.56678
upperback -2.77862 4.49242 -0.211642
thorax -1.03351 2.25808 -1.55688
lowerneck -4.72258 5.5824 2.54813
upperneck 49.2696 -5.1999 3.29903
head 20.5583 -4.11815 -0.749009
rclavicle 8.64713e-015 -8.74653e-015
rhumerus 74.0555 23.3461 -31.2941
rradius 43.451
rwrist -36.8499
rhand 7.38048 10.4112
rfingers 7.12502
rthumb 32.6378 -16.6648
lclavicle 8.64713e-015 -8.74653e-015
lhumerus 88.5285 -20.4313 29.3964
lradius 60.24
lwrist 33.4431
lhand 7.74606 26.0936
lfingers 7.12502
lthumb 32.9856 53.0969
rfemur -36.8089 -15.3749 31.393
rtibia 62.2868
rfoot -26.6893 -26.0006
rtoes -10.4301
lfemur -54.7544 11.7692 -35.7008
ltibia 43.1507
lfoot -23.9846 19.3936
ltoes -14.015
340
root -0.396895 16.0765 -6.16712 -160.178 1.61522 182.434
lowerback -4.80037 3.71701 2.89931
upperback -2.21922 4.94082 -0.171456
thorax 0.656914 2.50301 -1.52294
lowerneck -5.75527 5.3651 2.21895
upperneck 48.9024 -5.03046 3.32491
head 20.5715 -3.98586 -0.625337
rclavicle -2.71341e-014 -9.93923e-016
rhumerus 75.3231 20.4546 -30.5044
rradius 43.5748
rwrist -39.4393
rhand 7.4469 8.79127
rfingers 7.12502
rthumb 32.701 -18.2716
lclavicle -2.71341e-014 -9.93923e-016
lhumerus 88.9387 -17.8868 30.0734
lradius 60.1426
lwrist 35.6824
lhand 8.95667 24.6019
lfingers 7.12502
lthumb 34.1361 51.3553
rfemur -36.5634 -13.5881 31.6111
rtibia 60.5928
rfoot -26.6363 -26.68
rtoes -11.2711
lfemur -55.5293 12.1734 -35.3294
ltibia 42.939
lfoot -24.2375 19.4982
ltoes -13.0416
341
root -0.387993 16.0931 -6.15326 -159.817 1.6305 182.723
lowerback -3.13995 3.7161 3.44465
upperback -4.4515 5.17802 -0.465675
thorax -2.49139 2.59833 -2.34287
lowerneck -3.56138 5.96918 2.51827
upperneck 49.7981 -5.56049 4.03442
head 20.7086 -4.38352 -0.475175
rclavicle -5.68027e-014 -8.34896e-015
rhumerus 73.8724 21.2071 -31.574
rradius 43.1449
rwrist -40.1646
rhand 6.63461 6.18499
rfingers 7.12502
rthumb 31.9278 -21.0354
lclavicle -5.68027e-014 -8.34896e-015
lhumerus 87.5839 -19.1627 30.8856
lradius 59.9766
lwrist 37.556
lhand 10.5376 23.4217
lfingers 7.12502
lthumb 35.636 49.8268
rfemur -36.0338 -12.6883 31.6977
rtibia 58.9134
rfoot -26.4213 -27.3381
rtoes -10.996
lfemur -55.8193 12.183 -35.1073
ltibia 42.6829
lfoot -24.0071 19.5656
ltoes -14.1516
342
root -0.378599 16.1105 -6.13669 -159.648 1.33515 182.946
lowerback -6.92236 3.63712 3.6858
upperback -1.77304 4.70275 -0.0499366
thorax 2.33476 2.41227 -1.68477
lowerneck -6.93783 5.69197 1.2338
upperneck 49.1844 -4.71087 4.24919
head 21.2033 -3.89784 0.0647122
rclavicle -1.83379e-014 -5.36719e-015
rhumerus 77.479 16.3103 -30.5768
rradius 41.6682
rwrist -40.2618
rhand 6.77508 5.23612
rfingers 7.12502
rthumb 32.0616 -21.9575
lclavicle -1.83379e-014 -5.36719e-015
lhumerus 88.9367 -13.9313 30.5863
lradius 59.3835
lwrist 41.9416
lhand 8.95572 19.7875
lfingers 7.12502
lthumb 34.1352 46.5412
rfemur -35.3322 -12.0734 31.8206
rtibia 57.2507
rfoot -25.965 -28.0191
rtoes -11.1589
lfemur -56.0061 12.0927 -34.8736
ltibia 42.5903
lfoot -23.5533 19.8077
ltoes -15.9989
343
root -0.364083 16.1174 -6.12289 -159.512 1.33281 182.978
lowerback -6.39448 3.41581 3.50827
upperback -2.7671 4.52734 0.0775535
thorax 0.979996 2.32282 -1.54841
lowerneck -5.265 5.54995 2.63418
upperneck 48.4716 -4.06046 2.41591
head 20.0149 -3.64676 -0.967995
rclavicle -3.68746e-014 -7.95139e-015
rhumerus 77.467 15.7812 -29.9787
rradius 41.9967
rwrist -41.6269
rhand 6.28092 3.32451
rfingers 7.12502
rthumb 31.591 -23.9626
lclavicle -3.68746e-014 -7.95139e-015
lhumerus 87.876 -13.4194 32.0684
lradius 58.1697
lwrist 42.3896
lhand 12.1016 19.1702
lfingers 7.12502
lthumb 37.1168 45.2044
rfemur -34.5545 -10.9677 31.6098
rtibia 55.7148
rfoot -26.3499 -28.1666
rtoes -9.73083
lfemur -56.0575 12.0029 -34.7894
ltibia 42.3281
lfoot -23.1563 20.2795
ltoes -17.0255
344
root -0.326599 16.1197 -6.10443 -159.423 1.58377 182.823
lowerback -6.3973 3.27174 2.85543
upperback -3.18683 4.41509 0.174364
thorax 0.487966 2.27625 -1.11408
lowerneck -9.39312 8.00286 6.21235
upperneck 52.9279 -2.57688 0.255252
head 26.183 -2.68916 -3.20508
rclavicle 1.39149e-014 1.17283e-014
rhumerus 78.1413 14.5941 -30.0058
rradius 39.8946
rwrist -43.5383
rhand 7.95215 6.0635
rfingers 7.12502
rthumb 33.1815 -20.8982
lclavicle 1.39149e-014 1.17283e-014
lhumerus 87.2346 -12.2081 33.262
lradius 59.1226
lwrist 43.6103
lhand 12.9073 22.4547
lfingers 7.12502
lthumb 37.8783 48.2869
rfemur -33.8023 -9.08521 31.1913
rtibia 54.2458
rfoot -27.263 -28.1402
rtoes -6.39529
lfemur -56.091 12.033 -34.7748
ltibia 42.0627
lfoot -23.2631 20.2212
ltoes -16.1519
345
root -0.288488 16.1199 -6.08197 -159.292 1.84063 182.162
lowerback -6.91643 3.16726 1.76964
upperback -3.19474 4.32968 0.114997
thorax 0.692017 2.24623 -0.54741
lowerneck -6.02043 5.9933 2.12065
upperneck 49.4394 -3.83782 2.5791
head 20.9906 -3.71475 -0.841571
rclavicle 1.93318e-014 2.5842e-015
rhumerus 78.6306 12.7628 -31.5267
rradius 38.592
rwrist -45.4576
rhand 11.2755 7.91787
rfingers 7.12502
rthumb 36.3351 -18.3156
lclavicle 1.93318e-014 2.5842e-015
lhumerus 87.0392 -10.5139 33.6611
lradius 59.9488
lwrist 45.7772
lhand 12.8229 22.9206
lfingers 7.12502
lthumb 37.7986 48.7743
rfemur -33.2725 -7.51261 30.2466
rtibia 52.9515
rfoot -28.2162 -27.4077
rtoes -2.18759
lfemur -56.1842 12.2048 -35.5312
ltibia 41.7326
lfoot -22.8943 20.1426
ltoes -17.1351
346
root -0.286087 16.1218 -6.06516 -159.34 1.3119 182.575
lowerback -5.87286 2.86452 2.40572
upperback -4.48561 4.05959 0.299879
thorax -1.19799 2.12976 -0.844229
lowerneck -3.94211 6.30087 1.51417
upperneck 49.3926 -4.04567 3.42679
head 20.3756 -4.02396 -0.339344
rclavicle 6.90777e-015 1.21259e-014
rhumerus 78.2285 13.0063 -32.73
rradius 38.1801
rwrist -45.0613
rhand 10.7409 7.17539
rfingers 7.12502
rthumb 35.8287 -19.183
lclavicle 6.90777e-015 1.21259e-014
lhumerus 85.6621 -10.4581 34.0881
lradius 60.5679
lwrist 48.1102
lhand 12.3556 23.7745
lfingers 7.12502
lthumb 37.357 49.7458
rfemur -32.3573 -7.13206 30.498
rtibia 51.6229
rfoot -29.1578 -25.8412
rtoes 0.47071
lfemur -56.0213 12.0149 -34.9839
ltibia 41.484
lfoot -22.6812 19.8884
ltoes -16.8331
347
root -0.274428 16.1271 -6.04474 -159.349 1.27257 182.327
lowerback -6.66247 2.78913 2.25472
upperback -4.22786 3.92472 0.253093
thorax -0.504737 2.06831 -0.759883
lowerneck -3.75113 6.2046 1.6272
upperneck 48.6589 -3.56236 3.18331
head 19.7322 -3.76099 -0.35102
rclavicle 2.11209e-014 1.33186e-014
rhumerus 78.914 11.2102 -33.4967
rradius 37.1961
rwrist -44.6137
rhand 11.6198 7.95359
rfingers 7.12502
rthumb 36.6611 -18.1977
lclavicle 2.11209e-014 1.33186e-014
lhumerus 85.8167 -8.64212 34.6254
lradius 60.6169
lwrist 50.051
lhand 12.1093 24.1227
lfingers 7.12502
lthumb 37.1241 50.155
rfemur -31.7261 -6.30284 30.0314
rtibia 50.4994
rfoot -29.3106 -25.8607
rtoes -1.38853
lfemur -55.8516 11.8248 -35.1267
ltibia 41.2115
lfoot -22.7798 19.7076
ltoes -15.6525
348
root -0.252682 16.129 -6.00521 -159.414 1.39539 181.772
lowerback -6.86453 2.70788 1.63813
upperback -4.15843 3.83506 0.109539
thorax -0.351267 2.0304 -0.556363
lowerneck -3.91754 6.36387 2.25191
upperneck 48.3199 -2.72455 2.55343
head 19.4902 -3.31179 -0.614386
rclavicle 3.83157e-014 1.19271e-014
rhumerus 79.702 9.47465 -33.3699
rradius 37.0204
rwrist -44.757
rhand 11.2067 8.06019
rfingers 7.12502
rthumb 36.2699 -18.1895
lclavicle 3.83157e-014 1.19271e-014
lhumerus 85.9725 -6.99715 35.003
lradius 60.336
lwrist 51.3633
lhand 12.6272 23.4292
lfingers 7.12502
lthumb 37.6137 49.3325
rfemur -31.1472 -5.18829 29.2957
rtibia 49.4851
rfoot -29.4534 -26.6576
rtoes -4.09853
lfemur -55.7586 11.645 -35.5696
ltibia 41.0073
lfoot -22.7499 19.7525
ltoes -14.9943
349
root -0.234367 16.1283 -5.96338 -159.482 1.28943 181.517
lowerback -7.0543 2.75507 1.51045
upperback -3.92778 3.87648 -0.00453159
thorax -0.00723258 2.04545 -0.579946
lowerneck -4.88406 6.38003 3.23267
upperneck 48.7083 -2.41509 1.54426
head 20.035 -3.06922 -1.26793
rclavicle -3.73715e-014 -4.77083e-015
rhumerus 80.3691 7.11189 -34.4847
rradius 35.0819
rwrist -39.3775
rhand 12.5629 11.6908
rfingers 7.12502
rthumb 37.5529 -14.2287
lclavicle -3.73715e-014 -4.77083e-015
lhumerus 86.5294 -5.31099 35.3441
lradius 60.05
lwrist 52.4091
lhand 13.8231 22.2762
lfingers 7.12502
lthumb 38.7427 47.8694
rfemur -30.4813 -4.24759 28.9621
rtibia 48.5829
rfoot -29.8108 -27.3557
rtoes -6.91534
lfemur -55.6824 11.5028 -35.7394
ltibia 40.7517
lfoot -22.5372 19.7252
ltoes -14.8568
350
root -0.213601 16.1264 -5.92707 -159.611 0.80748 181.495
lowerback -7.14691 2.66826 1.61309
upperback -3.74107 3.73463 0.0187164
thorax 0.238293 1.96872 -0.611715
lowerneck -7.29155 6.22867 1.13954
upperneck 50.049 -3.7662 3.22714
head 22.0117 -3.83779 -0.401461
rclavicle -1.48095e-014 -1.61016e-014
rhumerus 80.8273 5.25782 -36.2763
rradius 33.5671
rwrist -33.5834
rhand 12.6303 14.6561
rfingers 7.12502
rthumb 37.6166 -11.2465
lclavicle -1.48095e-014 -1.61016e-014
lhumerus 86.8704 -3.69403 35.6316
lradius 59.9628
lwrist 53.5564
lhand 14.455 21.5698
lfingers 7.12502
lthumb 39.3384 46.992
rfemur -29.717 -3.5521 29.041
rtibia 47.6994
rfoot -30.0537 -28.2911
rtoes -10.03
lfemur -55.5689 11.4024 -35.6689
ltibia 40.5495
lfoot -22.1624 19.4624
ltoes -14.8233
351
root -0.184352 16.122 -5.9006 -160.113 0.158432 181.161
lowerback -6.5885 2.22762 1.21627
upperback -4.14605 3.21536 0.0560773
thorax -0.522542 1.72248 -0.430663
lowerneck -8.00577 6.82203 -1.44391
upperneck 52.288 -6.89794 6.90216
head 25.5017 -5.6648 1.31779
rclavicle 7.05437e-014 8.15017e-015
rhumerus 80.9634 4.79271 -38.2987
rradius 32.3392
rwrist -28.4687
rhand 11.9134 15.1987
rfingers 7.12502
rthumb 36.9388 -10.8815
lclavicle 7.05437e-014 8.15017e-015
lhumerus 86.1409 -2.7275 35.4595
lradius 60.1277
lwrist 55.1391
lhand 14.2316 21.5473
lfingers 7.12502
lthumb 39.1279 47.0306
rfemur -28.6042 -2.75196 28.8744
rtibia 46.8297
rfoot -30.554 -29.6025
rtoes -12.1612
lfemur -54.9375 10.9883 -35.5984
ltibia 40.435
lfoot -22.2404 19.0646
ltoes -13.8267
